<svg width="520" height="120" viewBox="0 0 520 120" fill="none" xmlns="http://www.w3.org/2000/svg">
  <rect x="4" y="10" width="96" height="96" rx="24" fill="#F7F9F8"/>
  <rect x="22" y="24" width="60" height="52" rx="14" fill="white" stroke="#D7DCDA" stroke-width="3.5"/>
  <path d="M34 42H70" stroke="#6F7672" stroke-width="3.5" stroke-linecap="round"/>
  <path d="M34 54H52" stroke="#A0A7A3" stroke-width="3.5" stroke-linecap="round"/>
  <path d="M34 64H46" stroke="#A0A7A3" stroke-width="3.5" stroke-linecap="round"/>
  <circle cx="65" cy="62" r="10" fill="#EEF2F0" stroke="#D7DCDA" stroke-width="3.5"/>
  <path d="M61 62L64 65L70 58" stroke="#6F7672" stroke-width="3.5" stroke-linecap="round" stroke-linejoin="round"/>
  <path d="M126 44.16H139.56V74H132.6V49.88L127.02 51.4L126 44.16ZM163.151 43.6C172.711 43.6 177.151 48.8 177.151 58.68C177.151 68.8 172.511 74.56 163.151 74.56C153.791 74.56 149.111 68.8 149.111 58.68C149.111 48.8 153.591 43.6 163.151 43.6ZM163.151 49.24C158.711 49.24 156.271 52.4 156.271 58.68C156.271 65.16 158.711 68.92 163.151 68.92C167.591 68.92 169.991 65.16 169.991 58.68C169.991 52.4 167.551 49.24 163.151 49.24ZM201.562 44.16H208.522V74H201.922L190.122 55.08V74H183.162V44.16H189.962L201.562 62.76V44.16ZM233.282 44.16V49.88H219.082V56.12H231.442V61.56H219.082V68.28H233.722V74H212.122V44.16H233.282ZM268.191 44.16V49.96H259.831V74H252.791V49.96H244.391V44.16H268.191ZM289.549 44.16H296.509V74H289.909L278.109 55.08V74H271.149V44.16H277.949L289.549 62.76V44.16ZM321.269 44.16V49.88H307.069V56.12H319.429V61.56H307.069V68.28H321.709V74H300.109V44.16H321.269ZM355.658 44.16L345.738 63.16V74H338.698V63.16L328.778 44.16H336.698L342.258 56.52L347.818 44.16H355.658ZM381.392 44.16H388.352V74H381.752L369.952 55.08V74H362.992V44.16H369.792L381.392 62.76V44.16ZM413.112 44.16V49.88H398.912V56.12H411.272V61.56H398.912V68.28H413.552V74H391.952V44.16H413.112ZM446.741 44.16V49.96H438.381V74H431.341V49.96H422.941V44.16H446.741Z" fill="#222222"/>
</svg>
